<svg viewBox="0 0 916 616" fill="none" xmlns="http://www.w3.org/2000/svg" >
    <g>
    <path opacity="0.5" d="M233 76C233 161.052 164.052 230 79 230C-6.05185 230 -75 161.052 -75 76C-75 -9.05185 -6.05185 -78 79 -78C164.052 -78 233 -9.05185 233 76ZM17.32 76C17.32 110.065 44.9351 137.68 79 137.68C113.065 137.68 140.68 110.065 140.68 76C140.68 41.9351 113.065 14.32 79 14.32C44.9351 14.32 17.32 41.9351 17.32 76Z" fill="#4A56BD"></path>
    <path opacity="0.5" fill-rule="evenodd" clip-rule="evenodd" d="M670.886 502.181C638.397 532.35 628.339 580.616 645.974 621.585C669.209 675.563 731.533 700.379 785.51 677.144C839.488 653.909 864.302 591.587 841.067 537.609C833.228 519.399 812.766 511.251 794.555 519.09C776.345 526.929 768.198 547.391 776.036 565.602C783.875 583.813 775.728 604.275 757.518 612.114C739.307 619.953 718.845 611.805 711.006 593.595C705.126 579.936 708.264 563.94 719.313 553.794C722.651 550.812 725.713 547.18 728.125 543.831C743.247 523.45 745.803 495.367 734.047 468.056C726.209 449.845 706.215 444.577 688.655 452.136C670.444 459.975 663.047 483.971 670.886 502.181ZM627.027 398.501C619.297 380.543 627.588 359.719 645.546 351.989C663.504 344.259 684.328 352.55 692.058 370.508C699.788 388.466 691.496 409.29 673.539 417.02C655.581 424.75 634.757 416.458 627.027 398.501Z" fill="#BEAC62"></path>
    <g opacity="0.5">
    <path d="M70.8558 350.447C64.9464 328.588 77.8762 306.077 99.7352 300.168L126.09 293.043C147.949 287.134 170.459 300.064 176.369 321.923L268.531 662.838C274.441 684.697 261.511 707.207 239.652 713.117L213.297 720.241C191.438 726.151 168.928 713.221 163.018 691.362L70.8558 350.447Z" fill="#4A94BD"></path>
    <path d="M-36.588 564.075C-44.4647 534.939 -27.2302 504.933 1.90637 497.056L316.467 412.019C345.603 404.142 375.609 421.376 383.485 450.513C391.362 479.649 374.128 509.655 344.991 517.532L30.4307 602.569C1.29409 610.446 -28.7112 593.212 -36.588 564.075Z" fill="#4A94BD"></path>
    </g>
    <path opacity="0.5" d="M844.034 253.984C771.648 301.68 674.016 281.671 626.383 209.379C578.749 137.087 598.883 39.4808 671.269 -8.21461C717.603 -38.7445 775.194 -42.6425 825.321 -18.6494C857.19 -3.39521 893.527 -0.019667 927.622 -9.1639C934.888 -11.0951 942.853 -8.24482 946.978 -1.98507C951.111 4.28828 951.044 12.4315 946.392 18.3332C924.352 46.361 913.025 81.2849 914.425 116.799C916.59 172.229 890.282 223.511 844.034 253.984Z" fill="#764ABD"></path>
    </g>
</svg>